<svg width="115" height="27" viewBox="0 0 115 27" fill="none" xmlns="http://www.w3.org/2000/svg">
<path d="M78.7226 6.10689C75.699 6.10689 74.2223 7.94928 74.2223 10.3304V16.9559C74.2223 18.4344 73.2207 19.7448 71.7206 19.7448H63.9041C63.8894 19.7448 63.8748 19.7476 63.8613 19.7531C63.8477 19.7587 63.8353 19.7668 63.8249 19.7771C63.8145 19.7874 63.8062 19.7996 63.8006 19.813C63.7949 19.8265 63.792 19.8409 63.792 19.8554V21.3155C63.7921 21.3449 63.804 21.373 63.825 21.3937C63.846 21.4144 63.8745 21.426 63.9041 21.4259H73.1194C76.143 21.4259 77.6244 19.8445 77.6244 17.468V10.3304C77.6244 8.84738 78.716 7.78344 80.2161 7.78344H88.0771C88.1067 7.78351 88.1352 7.77191 88.1562 7.75119C88.1772 7.73046 88.1891 7.70231 88.1892 7.67292V6.2174C88.1891 6.20284 88.1862 6.18843 88.1805 6.17499C88.1749 6.16155 88.1666 6.14936 88.1562 6.13909C88.1457 6.12883 88.1334 6.1207 88.1198 6.11518C88.1062 6.10965 88.0916 6.10683 88.0769 6.10689H78.7226ZM60.3727 6.03603H42.2006C42.171 6.03603 42.1426 6.04767 42.1216 6.06838C42.1007 6.0891 42.0888 6.11721 42.0887 6.14655V7.73751C42.0911 7.79936 42.1427 7.84816 42.2053 7.84816H59.2432C60.1244 7.84816 61.451 8.55798 61.451 10.2608C61.451 11.9635 59.9812 12.6781 59.243 12.6781H45.8975C43.7224 12.6781 42.084 14.61 42.084 17.001V21.3749C42.0833 21.3896 42.0858 21.4043 42.0912 21.418C42.0966 21.4317 42.1048 21.4441 42.1153 21.4545C42.1259 21.4649 42.1385 21.4731 42.1524 21.4784C42.1662 21.4837 42.1811 21.4862 42.196 21.4855H45.3842C45.4138 21.4855 45.4422 21.4739 45.4632 21.4531C45.4841 21.4324 45.496 21.4043 45.496 21.3749V16.9965C45.496 15.5176 46.6237 14.3868 47.8608 14.3868L60.3633 14.4809C63.3835 14.4809 64.8585 12.6381 64.8585 10.2608C64.8585 7.88339 63.3834 6.03603 60.3635 6.03603H60.3727ZM12.7529 0.947266V24.842L18.2158 26.5594V6.51594C18.2158 5.59018 18.6368 4.95134 19.3196 5.16886C20.213 5.41416 20.386 6.2799 20.386 7.2148V15.2185C23.7909 16.8478 26.4662 15.2185 26.4662 10.9227C26.471 6.51594 24.904 4.56251 20.2925 3.00248C17.822 2.17165 15.3045 1.4854 12.7529 0.947266V0.947266Z" fill="#21262E"/>
<path d="M19.4101 23.0139L28.2068 19.8925C29.2039 19.5384 29.3584 19.0305 28.5485 18.7697C27.4619 18.5196 26.3263 18.5777 25.2715 18.9374L19.4101 20.9872V17.7261L19.7471 17.6143C21.0725 17.1866 22.439 16.8961 23.8248 16.7476C26.3888 16.4873 28.9791 16.7944 31.4089 17.6469C33.9886 18.4622 34.2789 19.6549 33.6234 20.4795C32.968 21.3042 31.3622 21.8771 31.3622 21.8771L19.4101 26.1634V23.0139ZM2.87254 22.7521C0.240145 22.0111 -0.196986 20.4687 1.0123 19.5739C1.94413 18.9682 2.95082 18.4842 4.00747 18.1337L11.7978 15.3375V18.4973L6.21668 20.5106C5.22596 20.8647 5.07714 21.368 5.87719 21.6336C6.95655 21.8841 8.0854 21.8259 9.13277 21.4658L11.8211 20.4872V23.344L11.2862 23.4279C8.48182 23.8833 5.60768 23.6513 2.91451 22.7521" fill="#21262E"/>
<path fill-rule="evenodd" clip-rule="evenodd" d="M91.5855 6.10693H113.38C113.484 6.10693 113.535 6.14673 113.535 6.22632V7.70624C113.535 7.77814 113.484 7.81063 113.38 7.80397C101.176 7.80306 95.0229 7.80306 94.9219 7.80397C94.8208 7.80489 94.7577 7.83881 94.7324 7.90575V11.4813C94.7324 11.7482 94.9631 12.6084 95.8469 12.6084H109.703C111.395 12.6084 114.203 13.7777 114.203 17.0111C114.203 20.2444 111.259 21.4445 110.06 21.4445H91.5855C91.4947 21.4445 91.4515 21.43 91.4515 21.3209C91.4515 21.2118 91.4458 19.9276 91.4515 19.859C91.4575 19.7904 91.4804 19.7527 91.5854 19.752C91.6905 19.7512 106.93 19.752 107.888 19.752C108.846 19.752 110.789 19.0289 110.789 17.0111C110.789 14.9932 108.789 14.3869 108.28 14.3869H93.6433C93.3478 14.3869 92.6336 14.2811 92.0836 13.6536C91.5335 13.026 91.4515 12.6697 91.4515 11.8263V6.22632C91.4515 6.14673 91.4963 6.10693 91.5854 6.10693H91.5855Z" fill="#21262E"/>
</svg>
