<svg width="353" height="90" viewBox="0 0 353 90" fill="none" xmlns="http://www.w3.org/2000/svg">
<mask id="mask0_3_7" style="mask-type:alpha" maskUnits="userSpaceOnUse" x="0" y="0" width="353" height="90">
<rect x="0.559204" y="0.828613" width="351.456" height="88.2197" rx="42.6869" fill="url(#paint0_linear_3_7)"/>
</mask>
<g mask="url(#mask0_3_7)">
<g filter="url(#filter0_i_3_7)">
<rect x="0.559204" y="0.828613" width="351.456" height="88.2197" rx="42.6869" fill="#21262E"/>
</g>
<g filter="url(#filter1_dd_3_7)">
<rect x="199.053" y="25.0178" width="39.8411" height="39.8411" rx="11.3832" fill="#21262E"/>
</g>
<g filter="url(#filter2_ii_3_7)">
<path d="M225.143 39.0283C223.531 37.3461 221.301 36.3967 218.972 36.401C214.264 36.3951 210.443 40.2068 210.437 44.9148C210.434 47.2428 211.383 49.4706 213.064 51.0811C213.069 51.086 213.071 51.0933 213.076 51.0976C213.125 51.1451 213.179 51.1854 213.229 51.2311C213.366 51.353 213.503 51.4792 213.647 51.5969C213.725 51.6579 213.805 51.7188 213.884 51.7749C214.021 51.8767 214.158 51.9785 214.3 52.0724C214.397 52.1334 214.497 52.1943 214.596 52.2553C214.728 52.3346 214.859 52.4144 214.995 52.4869C215.11 52.5479 215.228 52.6003 215.345 52.6558C215.473 52.7168 215.599 52.7777 215.73 52.8326C215.861 52.8875 215.993 52.9301 216.126 52.9777C216.259 53.0252 216.373 53.0691 216.501 53.1081C216.645 53.1514 216.792 53.1849 216.939 53.2209C217.061 53.2508 217.179 53.2849 217.304 53.3093C217.473 53.3429 217.643 53.3642 217.814 53.3874C217.92 53.402 218.023 53.4227 218.129 53.4331C218.408 53.4605 218.69 53.4758 218.974 53.4758C219.258 53.4758 219.54 53.4605 219.819 53.4331C219.926 53.4227 220.029 53.402 220.134 53.3874C220.305 53.3642 220.476 53.3429 220.644 53.3093C220.766 53.2849 220.888 53.2483 221.01 53.2209C221.156 53.1849 221.303 53.1514 221.447 53.1081C221.575 53.0691 221.698 53.0216 221.822 52.9777C221.947 52.9338 222.088 52.8862 222.218 52.8326C222.348 52.7789 222.475 52.7161 222.603 52.6558C222.72 52.6003 222.838 52.5479 222.953 52.4869C223.089 52.4144 223.22 52.3345 223.352 52.2553C223.451 52.1943 223.551 52.1388 223.648 52.0724C223.791 51.9785 223.927 51.8767 224.064 51.7749C224.143 51.7139 224.223 51.659 224.301 51.5969C224.445 51.481 224.582 51.3579 224.72 51.2311C224.77 51.1854 224.823 51.1452 224.873 51.0976C224.878 51.0933 224.879 51.086 224.884 51.0811C228.284 47.8241 228.399 42.4279 225.143 39.0283ZM223.772 50.4428C223.661 50.5404 223.547 50.633 223.431 50.7227C223.363 50.7751 223.295 50.8269 223.224 50.8769C223.114 50.9568 223.002 51.0324 222.888 51.1049C222.805 51.1579 222.72 51.2091 222.635 51.2591C222.528 51.3201 222.418 51.3811 222.308 51.442C222.211 51.492 222.111 51.539 222.011 51.5853C221.911 51.6316 221.801 51.681 221.693 51.7243C221.585 51.7676 221.471 51.8084 221.358 51.8462C221.255 51.8816 221.152 51.9182 221.047 51.9492C220.926 51.9858 220.798 52.0157 220.672 52.0462C220.573 52.0693 220.476 52.0956 220.376 52.1151C220.231 52.1431 220.084 52.1626 219.936 52.1827C219.851 52.1937 219.768 52.209 219.683 52.2175C219.449 52.24 219.212 52.2535 218.972 52.2535C218.733 52.2535 218.496 52.2401 218.261 52.2175C218.177 52.209 218.093 52.1937 218.009 52.1827C217.861 52.1626 217.713 52.1431 217.569 52.1151C217.469 52.0956 217.371 52.0694 217.273 52.0462C217.147 52.0157 217.021 51.9852 216.897 51.9492C216.793 51.9182 216.69 51.8816 216.587 51.8462C216.474 51.8072 216.361 51.7676 216.252 51.7243C216.142 51.681 216.038 51.6335 215.933 51.5853C215.828 51.5372 215.734 51.492 215.636 51.442C215.526 51.3847 215.417 51.3244 215.31 51.2591C215.224 51.2092 215.14 51.1579 215.057 51.1049C214.943 51.0324 214.831 50.9568 214.72 50.8769C214.65 50.8269 214.582 50.7751 214.514 50.7227C214.398 50.633 214.283 50.5398 214.172 50.4428C214.145 50.4227 214.121 50.3971 214.095 50.3739C214.122 48.3001 215.454 46.4688 217.419 45.8047C218.401 46.272 219.542 46.272 220.524 45.8047C222.489 46.4688 223.821 48.3 223.849 50.3739C223.823 50.3971 223.799 50.4203 223.772 50.4428ZM216.846 41.289C217.506 40.1151 218.993 39.6985 220.167 40.3586C221.34 41.0187 221.757 42.5055 221.097 43.6794C220.878 44.0689 220.556 44.3907 220.167 44.6098C220.164 44.6098 220.16 44.6098 220.156 44.6134C219.995 44.7034 219.824 44.7758 219.647 44.8293C219.615 44.8384 219.586 44.8506 219.552 44.8585C219.491 44.8744 219.427 44.8853 219.364 44.8963C219.246 44.917 219.126 44.929 219.006 44.9323H218.937C218.817 44.929 218.697 44.917 218.579 44.8963C218.518 44.8853 218.454 44.8744 218.391 44.8585C218.359 44.8506 218.33 44.8384 218.297 44.8293C218.12 44.7758 217.949 44.7034 217.787 44.6134L217.776 44.6098C216.602 43.9497 216.186 42.4629 216.846 41.289ZM224.93 49.165C224.539 47.3403 223.337 45.7933 221.666 44.9628C223.032 43.4746 222.933 41.1607 221.445 39.7946C219.957 38.4284 217.643 38.5274 216.277 40.0156C214.993 41.4146 214.993 43.5638 216.277 44.9628C214.606 45.7934 213.405 47.3403 213.013 49.165C210.676 45.8722 211.45 41.3077 214.743 38.9699C218.035 36.6322 222.6 37.4065 224.937 40.6994C225.816 41.9372 226.288 43.4179 226.287 44.936C226.287 46.4527 225.813 47.9314 224.93 49.165Z" fill="#EEF2FA"/>
</g>
<g filter="url(#filter3_dd_3_7)">
<rect x="115.103" y="25.0178" width="39.8411" height="39.8411" rx="11.3832" fill="#21262E"/>
</g>
<g filter="url(#filter4_ii_3_7)">
<path d="M126.694 52.2613L131.55 47.4057C130.609 46.2439 130.043 44.7676 130.043 43.1598C130.043 39.4332 133.075 36.401 136.802 36.401C140.528 36.401 143.561 39.4332 143.561 43.1597C143.561 46.8863 140.528 49.9185 136.802 49.9185C135.194 49.9185 133.718 49.3522 132.556 48.4117L127.7 53.2673C127.562 53.406 127.38 53.4758 127.197 53.4758C127.015 53.4758 126.833 53.406 126.694 53.2673C126.416 52.9891 126.416 52.5395 126.694 52.2613ZM136.802 48.4956C139.744 48.4956 142.138 46.1023 142.138 43.1597C142.138 40.2172 139.744 37.8239 136.802 37.8239C133.859 37.8239 131.466 40.2172 131.466 43.1597C131.466 46.1023 133.859 48.4956 136.802 48.4956Z" fill="#EEF2FA"/>
</g>
<g filter="url(#filter5_dd_3_7)">
<rect x="30.4401" y="25.0178" width="39.8411" height="39.8411" rx="11.3832" fill="#21262E"/>
</g>
<g filter="url(#filter6_ii_3_7)">
<path d="M58.4395 43.8277C58.439 43.8273 58.4386 43.8268 58.4382 43.8264L51.4723 36.8615C51.1754 36.5645 50.7806 36.401 50.3607 36.401C49.9408 36.401 49.5461 36.5645 49.249 36.8615L42.2868 43.8229C42.2845 43.8252 42.282 43.8277 42.2798 43.8301C41.67 44.4432 41.6711 45.4381 42.2828 46.0497C42.5622 46.3293 42.9312 46.4911 43.3258 46.5081C43.342 46.5097 43.3581 46.5105 43.3744 46.5105H43.6519V51.6361C43.6519 52.6505 44.4774 53.4758 45.4919 53.4758H48.2172C48.4935 53.4758 48.7175 53.2517 48.7175 52.9755V48.957C48.7175 48.4941 49.0941 48.1176 49.557 48.1176H51.1644C51.6273 48.1176 52.0039 48.4941 52.0039 48.957V52.9755C52.0039 53.2517 52.2278 53.4758 52.5042 53.4758H55.2294C56.2441 53.4758 57.0694 52.6505 57.0694 51.6361V46.5105H57.3269C57.7466 46.5105 58.1414 46.347 58.4386 46.0499C59.0509 45.4373 59.0512 44.4406 58.4395 43.8277ZM57.731 45.3425C57.623 45.4505 57.4794 45.51 57.3269 45.51H56.5691C56.2928 45.51 56.0688 45.7339 56.0688 46.0103V51.6361C56.0688 52.0988 55.6923 52.4753 55.2294 52.4753H53.0044V48.957C53.0044 47.9426 52.1791 47.1172 51.1644 47.1172H49.557C48.5424 47.1172 47.7169 47.9426 47.7169 48.957V52.4753H45.4919C45.0291 52.4753 44.6525 52.0988 44.6525 51.6361V46.0103C44.6525 45.7339 44.4285 45.51 44.1522 45.51H43.4075C43.3997 45.5095 43.392 45.5091 43.3841 45.509C43.235 45.5064 43.0952 45.4472 42.9905 45.3424C42.7677 45.1196 42.7677 44.7571 42.9905 44.5342C42.9906 44.5342 42.9906 44.534 42.9907 44.5339L42.9911 44.5335L49.9567 37.5689C50.0646 37.4609 50.208 37.4015 50.3607 37.4015C50.5133 37.4015 50.6567 37.4609 50.7647 37.5689L57.7288 44.5321C57.7298 44.5331 57.731 44.5342 57.732 44.5352C57.9536 44.7584 57.9533 45.1201 57.731 45.3425Z" fill="#EEF2FA"/>
</g>
<g filter="url(#filter7_dd_3_7)">
<rect x="283.716" y="25.0178" width="39.8411" height="39.8411" rx="11.3832" fill="#21262E"/>
</g>
<g filter="url(#filter8_ii_3_7)">
<path d="M300.576 47.6658H300.577L300.58 47.6656H310.783C311.034 47.6656 311.255 47.4988 311.324 47.2571L313.575 39.3719C313.623 39.2019 313.589 39.0191 313.483 38.878C313.377 38.7369 313.21 38.6539 313.034 38.6539H299.279L298.876 36.8421C298.819 36.5843 298.591 36.401 298.327 36.401H294.95C294.639 36.401 294.387 36.6531 294.387 36.9642C294.387 37.2753 294.639 37.5275 294.95 37.5275H297.875C297.947 37.8485 299.801 46.1981 299.907 46.6785C299.309 46.9387 298.89 47.5355 298.89 48.2288C298.89 49.1605 299.647 49.9185 300.578 49.9185H310.783C311.094 49.9185 311.346 49.6664 311.346 49.3553C311.346 49.0442 311.094 48.7921 310.783 48.7921H300.578C300.268 48.7921 300.015 48.5394 300.015 48.2288C300.015 47.9188 300.267 47.6665 300.576 47.6658ZM312.288 39.7804L310.358 46.5391H301.029L299.529 39.7804H312.288Z" fill="#EEF2FA"/>
<path d="M300.079 51.6974C300.079 52.6781 300.877 53.476 301.858 53.476C302.838 53.476 303.636 52.6781 303.636 51.6974C303.636 50.7166 302.838 49.9187 301.858 49.9187C300.877 49.9187 300.079 50.7166 300.079 51.6974ZM301.858 51.1045C302.184 51.1045 302.45 51.3705 302.45 51.6974C302.45 52.0242 302.184 52.2902 301.858 52.2902C301.531 52.2902 301.265 52.0242 301.265 51.6974C301.265 51.3705 301.531 51.1045 301.858 51.1045Z" fill="#EEF2FA"/>
<path d="M307.905 51.6974C307.905 52.6781 308.703 53.476 309.684 53.476C310.664 53.476 311.462 52.6781 311.462 51.6974C311.462 50.7166 310.664 49.9187 309.684 49.9187C308.703 49.9187 307.905 50.7166 307.905 51.6974ZM309.684 51.1045C310.01 51.1045 310.276 51.3705 310.276 51.6974C310.276 52.0242 310.01 52.2902 309.684 52.2902C309.357 52.2902 309.091 52.0242 309.091 51.6974C309.091 51.3705 309.357 51.1045 309.684 51.1045Z" fill="#EEF2FA"/>
</g>
</g>
<defs>
<filter id="filter0_i_3_7" x="0.559204" y="0.828613" width="358.57" height="95.3342" filterUnits="userSpaceOnUse" color-interpolation-filters="sRGB">
<feFlood flood-opacity="0" result="BackgroundImageFix"/>
<feBlend mode="normal" in="SourceGraphic" in2="BackgroundImageFix" result="shape"/>
<feColorMatrix in="SourceAlpha" type="matrix" values="0 0 0 0 0 0 0 0 0 0 0 0 0 0 0 0 0 0 127 0" result="hardAlpha"/>
<feOffset dx="7.11449" dy="7.11449"/>
<feGaussianBlur stdDeviation="3.55725"/>
<feComposite in2="hardAlpha" operator="arithmetic" k2="-1" k3="1"/>
<feColorMatrix type="matrix" values="0 0 0 0 0.104271 0 0 0 0 0.126667 0 0 0 0 0.1625 0 0 0 1 0"/>
<feBlend mode="normal" in2="shape" result="effect1_innerShadow_3_7"/>
</filter>
<filter id="filter1_dd_3_7" x="184.824" y="12.2117" width="68.299" height="65.4534" filterUnits="userSpaceOnUse" color-interpolation-filters="sRGB">
<feFlood flood-opacity="0" result="BackgroundImageFix"/>
<feColorMatrix in="SourceAlpha" type="matrix" values="0 0 0 0 0 0 0 0 0 0 0 0 0 0 0 0 0 0 127 0" result="hardAlpha"/>
<feOffset dx="2.8458" dy="1.4229"/>
<feGaussianBlur stdDeviation="5.69159"/>
<feColorMatrix type="matrix" values="0 0 0 0 0.0284375 0 0 0 0 0.0383333 0 0 0 0 0.0541667 0 0 0 0.48 0"/>
<feBlend mode="normal" in2="BackgroundImageFix" result="effect1_dropShadow_3_7"/>
<feColorMatrix in="SourceAlpha" type="matrix" values="0 0 0 0 0 0 0 0 0 0 0 0 0 0 0 0 0 0 127 0" result="hardAlpha"/>
<feOffset dx="-2.8458" dy="-1.4229"/>
<feGaussianBlur stdDeviation="5.69159"/>
<feColorMatrix type="matrix" values="0 0 0 0 0.129412 0 0 0 0 0.14902 0 0 0 0 0.180392 0 0 0 1 0"/>
<feBlend mode="normal" in2="effect1_dropShadow_3_7" result="effect2_dropShadow_3_7"/>
<feBlend mode="normal" in="SourceGraphic" in2="effect2_dropShadow_3_7" result="shape"/>
</filter>
<filter id="filter2_ii_3_7" x="210.081" y="36.0453" width="17.7862" height="17.7863" filterUnits="userSpaceOnUse" color-interpolation-filters="sRGB">
<feFlood flood-opacity="0" result="BackgroundImageFix"/>
<feBlend mode="normal" in="SourceGraphic" in2="BackgroundImageFix" result="shape"/>
<feColorMatrix in="SourceAlpha" type="matrix" values="0 0 0 0 0 0 0 0 0 0 0 0 0 0 0 0 0 0 127 0" result="hardAlpha"/>
<feOffset dx="-0.355725" dy="-0.355725"/>
<feGaussianBlur stdDeviation="0.177862"/>
<feComposite in2="hardAlpha" operator="arithmetic" k2="-1" k3="1"/>
<feColorMatrix type="matrix" values="0 0 0 0 1 0 0 0 0 1 0 0 0 0 1 0 0 0 0.4 0"/>
<feBlend mode="normal" in2="shape" result="effect1_innerShadow_3_7"/>
<feColorMatrix in="SourceAlpha" type="matrix" values="0 0 0 0 0 0 0 0 0 0 0 0 0 0 0 0 0 0 127 0" result="hardAlpha"/>
<feOffset dx="0.355725" dy="0.355725"/>
<feGaussianBlur stdDeviation="0.177862"/>
<feComposite in2="hardAlpha" operator="arithmetic" k2="-1" k3="1"/>
<feColorMatrix type="matrix" values="0 0 0 0 0.127604 0 0 0 0 0.267969 0 0 0 0 0.408333 0 0 0 0.4 0"/>
<feBlend mode="normal" in2="effect1_innerShadow_3_7" result="effect2_innerShadow_3_7"/>
</filter>
<filter id="filter3_dd_3_7" x="100.874" y="12.2117" width="68.299" height="65.4534" filterUnits="userSpaceOnUse" color-interpolation-filters="sRGB">
<feFlood flood-opacity="0" result="BackgroundImageFix"/>
<feColorMatrix in="SourceAlpha" type="matrix" values="0 0 0 0 0 0 0 0 0 0 0 0 0 0 0 0 0 0 127 0" result="hardAlpha"/>
<feOffset dx="2.8458" dy="1.4229"/>
<feGaussianBlur stdDeviation="5.69159"/>
<feColorMatrix type="matrix" values="0 0 0 0 0.0284375 0 0 0 0 0.0383333 0 0 0 0 0.0541667 0 0 0 0.48 0"/>
<feBlend mode="normal" in2="BackgroundImageFix" result="effect1_dropShadow_3_7"/>
<feColorMatrix in="SourceAlpha" type="matrix" values="0 0 0 0 0 0 0 0 0 0 0 0 0 0 0 0 0 0 127 0" result="hardAlpha"/>
<feOffset dx="-2.8458" dy="-1.4229"/>
<feGaussianBlur stdDeviation="5.69159"/>
<feColorMatrix type="matrix" values="0 0 0 0 0.129412 0 0 0 0 0.14902 0 0 0 0 0.180392 0 0 0 1 0"/>
<feBlend mode="normal" in2="effect1_dropShadow_3_7" result="effect2_dropShadow_3_7"/>
<feBlend mode="normal" in="SourceGraphic" in2="effect2_dropShadow_3_7" result="shape"/>
</filter>
<filter id="filter4_ii_3_7" x="126.13" y="36.0453" width="17.7862" height="17.7863" filterUnits="userSpaceOnUse" color-interpolation-filters="sRGB">
<feFlood flood-opacity="0" result="BackgroundImageFix"/>
<feBlend mode="normal" in="SourceGraphic" in2="BackgroundImageFix" result="shape"/>
<feColorMatrix in="SourceAlpha" type="matrix" values="0 0 0 0 0 0 0 0 0 0 0 0 0 0 0 0 0 0 127 0" result="hardAlpha"/>
<feOffset dx="-0.355725" dy="-0.355725"/>
<feGaussianBlur stdDeviation="0.177862"/>
<feComposite in2="hardAlpha" operator="arithmetic" k2="-1" k3="1"/>
<feColorMatrix type="matrix" values="0 0 0 0 1 0 0 0 0 1 0 0 0 0 1 0 0 0 0.4 0"/>
<feBlend mode="normal" in2="shape" result="effect1_innerShadow_3_7"/>
<feColorMatrix in="SourceAlpha" type="matrix" values="0 0 0 0 0 0 0 0 0 0 0 0 0 0 0 0 0 0 127 0" result="hardAlpha"/>
<feOffset dx="0.355725" dy="0.355725"/>
<feGaussianBlur stdDeviation="0.177862"/>
<feComposite in2="hardAlpha" operator="arithmetic" k2="-1" k3="1"/>
<feColorMatrix type="matrix" values="0 0 0 0 0.127604 0 0 0 0 0.267969 0 0 0 0 0.408333 0 0 0 0.4 0"/>
<feBlend mode="normal" in2="effect1_innerShadow_3_7" result="effect2_innerShadow_3_7"/>
</filter>
<filter id="filter5_dd_3_7" x="16.2111" y="12.2117" width="68.2991" height="65.4534" filterUnits="userSpaceOnUse" color-interpolation-filters="sRGB">
<feFlood flood-opacity="0" result="BackgroundImageFix"/>
<feColorMatrix in="SourceAlpha" type="matrix" values="0 0 0 0 0 0 0 0 0 0 0 0 0 0 0 0 0 0 127 0" result="hardAlpha"/>
<feOffset dx="2.8458" dy="1.4229"/>
<feGaussianBlur stdDeviation="5.69159"/>
<feColorMatrix type="matrix" values="0 0 0 0 0.0284375 0 0 0 0 0.0383333 0 0 0 0 0.0541667 0 0 0 0.48 0"/>
<feBlend mode="normal" in2="BackgroundImageFix" result="effect1_dropShadow_3_7"/>
<feColorMatrix in="SourceAlpha" type="matrix" values="0 0 0 0 0 0 0 0 0 0 0 0 0 0 0 0 0 0 127 0" result="hardAlpha"/>
<feOffset dx="-2.8458" dy="-1.4229"/>
<feGaussianBlur stdDeviation="5.69159"/>
<feColorMatrix type="matrix" values="0 0 0 0 0.129412 0 0 0 0 0.14902 0 0 0 0 0.180392 0 0 0 1 0"/>
<feBlend mode="normal" in2="effect1_dropShadow_3_7" result="effect2_dropShadow_3_7"/>
<feBlend mode="normal" in="SourceGraphic" in2="effect2_dropShadow_3_7" result="shape"/>
</filter>
<filter id="filter6_ii_3_7" x="41.4675" y="36.0453" width="17.7863" height="17.7863" filterUnits="userSpaceOnUse" color-interpolation-filters="sRGB">
<feFlood flood-opacity="0" result="BackgroundImageFix"/>
<feBlend mode="normal" in="SourceGraphic" in2="BackgroundImageFix" result="shape"/>
<feColorMatrix in="SourceAlpha" type="matrix" values="0 0 0 0 0 0 0 0 0 0 0 0 0 0 0 0 0 0 127 0" result="hardAlpha"/>
<feOffset dx="-0.355725" dy="-0.355725"/>
<feGaussianBlur stdDeviation="0.177862"/>
<feComposite in2="hardAlpha" operator="arithmetic" k2="-1" k3="1"/>
<feColorMatrix type="matrix" values="0 0 0 0 1 0 0 0 0 1 0 0 0 0 1 0 0 0 0.4 0"/>
<feBlend mode="normal" in2="shape" result="effect1_innerShadow_3_7"/>
<feColorMatrix in="SourceAlpha" type="matrix" values="0 0 0 0 0 0 0 0 0 0 0 0 0 0 0 0 0 0 127 0" result="hardAlpha"/>
<feOffset dx="0.355725" dy="0.355725"/>
<feGaussianBlur stdDeviation="0.177862"/>
<feComposite in2="hardAlpha" operator="arithmetic" k2="-1" k3="1"/>
<feColorMatrix type="matrix" values="0 0 0 0 0.127604 0 0 0 0 0.267969 0 0 0 0 0.408333 0 0 0 0.4 0"/>
<feBlend mode="normal" in2="effect1_innerShadow_3_7" result="effect2_innerShadow_3_7"/>
</filter>
<filter id="filter7_dd_3_7" x="269.487" y="12.2117" width="68.299" height="65.4534" filterUnits="userSpaceOnUse" color-interpolation-filters="sRGB">
<feFlood flood-opacity="0" result="BackgroundImageFix"/>
<feColorMatrix in="SourceAlpha" type="matrix" values="0 0 0 0 0 0 0 0 0 0 0 0 0 0 0 0 0 0 127 0" result="hardAlpha"/>
<feOffset dx="2.8458" dy="1.4229"/>
<feGaussianBlur stdDeviation="5.69159"/>
<feColorMatrix type="matrix" values="0 0 0 0 0.0284375 0 0 0 0 0.0383333 0 0 0 0 0.0541667 0 0 0 0.48 0"/>
<feBlend mode="normal" in2="BackgroundImageFix" result="effect1_dropShadow_3_7"/>
<feColorMatrix in="SourceAlpha" type="matrix" values="0 0 0 0 0 0 0 0 0 0 0 0 0 0 0 0 0 0 127 0" result="hardAlpha"/>
<feOffset dx="-2.8458" dy="-1.4229"/>
<feGaussianBlur stdDeviation="5.69159"/>
<feColorMatrix type="matrix" values="0 0 0 0 0.129412 0 0 0 0 0.14902 0 0 0 0 0.180392 0 0 0 1 0"/>
<feBlend mode="normal" in2="effect1_dropShadow_3_7" result="effect2_dropShadow_3_7"/>
<feBlend mode="normal" in="SourceGraphic" in2="effect2_dropShadow_3_7" result="shape"/>
</filter>
<filter id="filter8_ii_3_7" x="294.032" y="36.0453" width="19.9207" height="17.7864" filterUnits="userSpaceOnUse" color-interpolation-filters="sRGB">
<feFlood flood-opacity="0" result="BackgroundImageFix"/>
<feBlend mode="normal" in="SourceGraphic" in2="BackgroundImageFix" result="shape"/>
<feColorMatrix in="SourceAlpha" type="matrix" values="0 0 0 0 0 0 0 0 0 0 0 0 0 0 0 0 0 0 127 0" result="hardAlpha"/>
<feOffset dx="-0.355725" dy="-0.355725"/>
<feGaussianBlur stdDeviation="0.177862"/>
<feComposite in2="hardAlpha" operator="arithmetic" k2="-1" k3="1"/>
<feColorMatrix type="matrix" values="0 0 0 0 1 0 0 0 0 1 0 0 0 0 1 0 0 0 0.4 0"/>
<feBlend mode="normal" in2="shape" result="effect1_innerShadow_3_7"/>
<feColorMatrix in="SourceAlpha" type="matrix" values="0 0 0 0 0 0 0 0 0 0 0 0 0 0 0 0 0 0 127 0" result="hardAlpha"/>
<feOffset dx="0.355725" dy="0.355725"/>
<feGaussianBlur stdDeviation="0.177862"/>
<feComposite in2="hardAlpha" operator="arithmetic" k2="-1" k3="1"/>
<feColorMatrix type="matrix" values="0 0 0 0 0.127604 0 0 0 0 0.267969 0 0 0 0 0.408333 0 0 0 0.4 0"/>
<feBlend mode="normal" in2="effect1_innerShadow_3_7" result="effect2_innerShadow_3_7"/>
</filter>
<linearGradient id="paint0_linear_3_7" x1="176.287" y1="0.828613" x2="176.287" y2="89.0483" gradientUnits="userSpaceOnUse">
<stop stop-color="#9B9DA3"/>
<stop offset="1" stop-color="#9B9DA3"/>
</linearGradient>
</defs>
</svg>
