<svg width="253" height="34" viewBox="0 0 253 34" fill="none" xmlns="http://www.w3.org/2000/svg">
<path opacity="0.7" d="M13.3058 2.00068L15.8096 10.8248L15.8829 11.0834H16.1518H24.3779L17.6832 16.6533L17.5053 16.8012L17.5685 17.0238L20.1008 25.9485L13.5333 20.4844L13.3058 20.2952L13.0782 20.4844L6.51068 25.9485L9.04302 17.0238L9.10617 16.8012L8.92831 16.6533L2.23358 11.0834H10.4597H10.7286L10.802 10.8248L13.3058 2.00068Z" stroke="black" stroke-width="0.711449"/>
<path opacity="0.7" d="M132.323 6.24921L134.827 15.0733L134.9 15.332H135.169H143.395L136.7 20.9018L136.522 21.0498L136.586 21.2723L139.118 30.197L132.55 24.733L132.323 24.5437L132.095 24.733L125.528 30.197L128.06 21.2723L128.123 21.0498L127.945 20.9018L121.251 15.332H129.477H129.746L129.819 15.0733L132.323 6.24921Z" stroke="black" stroke-width="0.711449"/>
<path opacity="0.7" d="M239.72 6.24921L242.224 15.0733L242.297 15.332H242.566H250.792L244.097 20.9018L243.919 21.0498L243.983 21.2723L246.515 30.197L239.947 24.733L239.72 24.5437L239.492 24.733L232.925 30.197L235.457 21.2723L235.52 21.0498L235.342 20.9018L228.648 15.332H236.874H237.143L237.216 15.0733L239.72 6.24921Z" stroke="black" stroke-width="0.711449"/>
</svg>
