<svg width="18" height="18" viewBox="0 0 18 18" fill="none" xmlns="http://www.w3.org/2000/svg">
<g filter="url(#filter0_ii_3_48)">
<path d="M9.1723 17.2907H8.10069C7.23398 17.2907 6.52881 16.5856 6.52881 15.7189V15.3563C6.16033 15.2386 5.80233 15.09 5.4584 14.912L5.20148 15.1689C4.57922 15.792 3.58244 15.7737 2.97826 15.1687L2.22086 14.4114C1.61561 13.8068 1.5982 12.8103 2.22106 12.1881L2.47778 11.9314C2.2998 11.5875 2.15123 11.2295 2.03347 10.861H1.67097C0.804289 10.861 0.0991211 10.1559 0.0991211 9.28915V8.21751C0.0991211 7.3508 0.804289 6.64566 1.671 6.64566H2.03351C2.15126 6.27715 2.29983 5.91919 2.47782 5.57525L2.2209 5.31837C1.5984 4.69654 1.61557 3.7 2.2211 3.09514L2.97856 2.33772C3.58414 1.7313 4.58068 1.71616 5.20175 2.33792L5.45843 2.59461C5.80236 2.41665 6.16037 2.26805 6.52884 2.15029V1.78779C6.52884 0.921077 7.23398 0.215942 8.10072 0.215942H9.17233C10.039 0.215942 10.7442 0.921077 10.7442 1.78779V2.15033C11.1127 2.26805 11.4707 2.41665 11.8146 2.59464L12.0715 2.33772C12.6938 1.71469 13.6905 1.73296 14.2947 2.33795L15.0521 3.09531C15.6574 3.6999 15.6748 4.69634 15.0519 5.31853L14.7952 5.57525C14.9732 5.91919 15.1218 6.27712 15.2395 6.64566H15.602C16.4687 6.64566 17.1739 7.3508 17.1739 8.21751V9.28915C17.1739 10.1559 16.4687 10.861 15.602 10.861H15.2395C15.1218 11.2295 14.9732 11.5875 14.7952 11.9314L15.0521 12.1883C15.6746 12.8102 15.6574 13.8067 15.0519 14.4116L14.2945 15.169C13.6889 15.7754 12.6923 15.7905 12.0713 15.1688L11.8146 14.9121C11.4707 15.09 11.1127 15.2386 10.7442 15.3564V15.7189C10.7442 16.5856 10.039 17.2907 9.1723 17.2907ZM5.62565 13.8614C6.10344 14.144 6.61768 14.3575 7.15407 14.4959C7.37498 14.5529 7.52932 14.7521 7.52932 14.9803V15.7189C7.52932 16.0339 7.78567 16.2902 8.10072 16.2902H9.17233C9.48738 16.2902 9.74374 16.0339 9.74374 15.7189V14.9803C9.74374 14.7521 9.89808 14.5529 10.119 14.4959C10.6554 14.3575 11.1696 14.144 11.6474 13.8614C11.844 13.7452 12.0943 13.7768 12.2558 13.9383L12.779 14.4615C13.0046 14.6874 13.3668 14.6821 13.5868 14.4617L14.3448 13.7038C14.5643 13.4846 14.5716 13.1223 14.345 12.896L13.8215 12.3726C13.6601 12.2111 13.6284 11.9608 13.7447 11.7642C14.0272 11.2864 14.2407 10.7722 14.3791 10.2358C14.4361 10.0149 14.6354 9.86056 14.8635 9.86056H15.6021C15.9171 9.86056 16.1735 9.60423 16.1735 9.28919V8.21754C16.1735 7.90249 15.9171 7.64617 15.6021 7.64617H14.8635C14.6353 7.64617 14.4361 7.49183 14.3791 7.27096C14.2407 6.73454 14.0272 6.22029 13.7447 5.74253C13.6284 5.54597 13.6601 5.29566 13.8215 5.13418L14.3448 4.61096C14.5709 4.38506 14.565 4.02288 14.345 3.80308L13.5871 3.04522C13.3674 2.82525 13.0051 2.81881 12.7792 3.04502L12.2558 3.56843C12.0944 3.72994 11.844 3.76156 11.6474 3.6453C11.1696 3.36274 10.6554 3.14927 10.119 3.01084C9.89811 2.95384 9.74377 2.75461 9.74377 2.52647V1.78779C9.74377 1.47274 9.48741 1.21642 9.17236 1.21642H8.10076C7.78571 1.21642 7.52935 1.47274 7.52935 1.78779V2.52641C7.52935 2.75455 7.37501 2.95378 7.15411 3.01077C6.61772 3.1492 6.10347 3.36267 5.62568 3.64524C5.42905 3.76146 5.17877 3.72985 5.01729 3.56837L4.49411 3.04515C4.26854 2.81931 3.90626 2.82455 3.68626 3.04492L2.92833 3.80281C2.70883 4.02205 2.70149 4.38432 2.92813 4.6107L3.45155 5.13411C3.61302 5.29559 3.64464 5.54591 3.52842 5.74247C3.24585 6.22023 3.03241 6.73447 2.89398 7.27089C2.83696 7.4918 2.63773 7.64611 2.40962 7.64611H1.671C1.35595 7.64614 1.0996 7.90246 1.0996 8.21751V9.28915C1.0996 9.6042 1.35595 9.86052 1.671 9.86052H2.40959C2.63773 9.86052 2.83692 10.0149 2.89395 10.2357C3.03238 10.7722 3.24585 11.2864 3.52838 11.7642C3.64461 11.9607 3.61299 12.211 3.45151 12.3725L2.9283 12.8957C2.70212 13.1216 2.70803 13.4838 2.9281 13.7036L3.68596 14.4615C3.90563 14.6814 4.26793 14.6879 4.49384 14.4617L5.01722 13.9383C5.13621 13.8193 5.38376 13.7184 5.62565 13.8614Z" fill="#21262E"/>
<path d="M8.63651 12.4684C6.58797 12.4684 4.92141 10.8018 4.92141 8.75333C4.92141 6.70482 6.58797 5.03823 8.63651 5.03823C10.6851 5.03823 12.3516 6.70482 12.3516 8.75333C12.3516 10.8018 10.6851 12.4684 8.63651 12.4684ZM8.63651 6.03871C7.13963 6.03871 5.92189 7.25649 5.92189 8.75333C5.92189 10.2502 7.13967 11.468 8.63651 11.468C10.1334 11.468 11.3511 10.2502 11.3511 8.75333C11.3511 7.25649 10.1334 6.03871 8.63651 6.03871Z" fill="#21262E"/>
</g>
<defs>
<filter id="filter0_ii_3_48" x="-0.256603" y="-0.139782" width="17.7862" height="17.7863" filterUnits="userSpaceOnUse" color-interpolation-filters="sRGB">
<feFlood flood-opacity="0" result="BackgroundImageFix"/>
<feBlend mode="normal" in="SourceGraphic" in2="BackgroundImageFix" result="shape"/>
<feColorMatrix in="SourceAlpha" type="matrix" values="0 0 0 0 0 0 0 0 0 0 0 0 0 0 0 0 0 0 127 0" result="hardAlpha"/>
<feOffset dx="-0.355725" dy="-0.355725"/>
<feGaussianBlur stdDeviation="0.177862"/>
<feComposite in2="hardAlpha" operator="arithmetic" k2="-1" k3="1"/>
<feColorMatrix type="matrix" values="0 0 0 0 1 0 0 0 0 1 0 0 0 0 1 0 0 0 0.4 0"/>
<feBlend mode="normal" in2="shape" result="effect1_innerShadow_3_48"/>
<feColorMatrix in="SourceAlpha" type="matrix" values="0 0 0 0 0 0 0 0 0 0 0 0 0 0 0 0 0 0 127 0" result="hardAlpha"/>
<feOffset dx="0.355725" dy="0.355725"/>
<feGaussianBlur stdDeviation="0.177862"/>
<feComposite in2="hardAlpha" operator="arithmetic" k2="-1" k3="1"/>
<feColorMatrix type="matrix" values="0 0 0 0 0.127604 0 0 0 0 0.267969 0 0 0 0 0.408333 0 0 0 0.4 0"/>
<feBlend mode="normal" in2="effect1_innerShadow_3_48" result="effect2_innerShadow_3_48"/>
</filter>
</defs>
</svg>
